<svg width="32" height="32" viewBox="0 0 32 32" fill="none" xmlns="http://www.w3.org/2000/svg">
<rect width="32" height="32" rx="16" fill="white"/>
<path d="M14.1953 4C14.8114 4 15.414 4.06815 16 4.19141C11.2305 5.1946 7.60938 10.0978 7.60938 16C7.60938 21.9022 11.2306 26.8043 16 27.8076C15.4139 27.9309 14.8115 28 14.1953 28C8.5646 28 4 22.6274 4 16C4 9.37258 8.5646 4 14.1953 4ZM17.8047 4C23.4354 4 28 9.37258 28 16C28 22.6274 23.4354 28 17.8047 28C17.1885 28 16.5861 27.9309 16 27.8076C20.7694 26.8043 24.3906 21.9022 24.3906 16C24.3906 10.0978 20.7695 5.1946 16 4.19141C16.586 4.06815 17.1886 4 17.8047 4Z" fill="black"/>
</svg>
