<svg width="1024" height="1024" viewBox="0 0 1024 1024" fill="none" xmlns="http://www.w3.org/2000/svg">
<path d="M435 0C461.276 0 487.008 2.74178 512 7.99609C308.484 50.7829 154 260.157 154 512C154 763.843 308.484 973.216 512 1016C487.008 1021.26 461.276 1024 435 1024C194.756 1024 0 794.77 0 512C0 229.23 194.756 0 435 0ZM589 0C829.244 0 1024 229.23 1024 512C1024 794.77 829.244 1024 589 1024C562.724 1024 536.992 1021.26 512 1016C715.516 973.216 870 763.843 870 512C870 260.157 715.516 50.7827 512 7.99609C536.992 2.74175 562.724 2.33677e-05 589 0Z" fill="black"/>
</svg>
